<?xml version="1.0" encoding="UTF-8"?>
<svg id="Layer_1" xmlns="http://www.w3.org/2000/svg" version="1.1" viewBox="0 0 666.14 84.47">
  <!-- Generator: Adobe Illustrator 29.8.3, SVG Export Plug-In . SVG Version: 2.1.1 Build 3)  -->
  <defs>
    <style>
      .st0 {
        fill: #006991;
      }
    </style>
  </defs>
  <g>
    <path class="st0" d="M45.65,0v27.94h-2.08c-.68-5.36-1.89-9.63-3.63-12.81-1.75-3.18-4.23-5.7-7.46-7.57-3.23-1.87-6.57-2.8-10.02-2.8-3.9,0-7.13,1.26-9.68,3.78-2.55,2.52-3.83,5.39-3.83,8.61,0,2.46.81,4.71,2.42,6.73,2.33,2.98,7.86,6.95,16.6,11.91,7.13,4.05,12,7.16,14.61,9.32,2.61,2.17,4.62,4.72,6.02,7.65,1.41,2.94,2.11,6.02,2.11,9.23,0,6.12-2.24,11.39-6.73,15.82-4.48,4.43-10.25,6.64-17.31,6.64-2.21,0-4.3-.18-6.25-.54-1.16-.2-3.57-.92-7.23-2.17-3.66-1.25-5.98-1.88-6.95-1.88s-1.68.3-2.22.89c-.54.6-.95,1.83-1.21,3.69H.73v-27.7h2.08c.98,5.8,2.29,10.14,3.94,13.02,1.65,2.88,4.17,5.27,7.57,7.18,3.4,1.91,7.12,2.86,11.17,2.86,4.69,0,8.4-1.31,11.12-3.93,2.72-2.62,4.08-5.72,4.08-9.29,0-1.99-.52-3.99-1.55-6.02-1.03-2.03-2.64-3.91-4.81-5.66-1.46-1.19-5.46-3.72-11.99-7.6-6.53-3.87-11.17-6.96-13.93-9.26-2.76-2.3-4.85-4.84-6.28-7.62-1.43-2.78-2.14-5.84-2.14-9.17,0-5.8,2.1-10.79,6.3-14.98C10.51,2.1,15.85,0,22.34,0c4.05,0,8.35,1.05,12.89,3.16,2.1.99,3.58,1.49,4.45,1.49.98,0,1.77-.31,2.39-.92.62-.62,1.12-1.86,1.49-3.72h2.08Z"/>
    <path class="st0" d="M80.99,6.25v31.93h16.77c4.35,0,7.26-.69,8.72-2.08,1.95-1.83,3.04-5.04,3.26-9.65h2.08v28.12h-2.08c-.53-3.93-1.05-6.45-1.58-7.57-.68-1.39-1.78-2.48-3.32-3.28-1.54-.79-3.9-1.19-7.09-1.19h-16.77v26.63c0,3.57.15,5.75.45,6.52.3.77.82,1.39,1.58,1.85.75.46,2.18.69,4.28.69h12.95c4.31,0,7.45-.32,9.4-.95,1.95-.63,3.83-1.89,5.63-3.75,2.33-2.46,4.71-6.18,7.15-11.14h2.25l-6.58,20.25h-58.82v-2.2h2.7c1.8,0,3.51-.46,5.12-1.37,1.2-.63,2.02-1.59,2.45-2.86.43-1.27.65-3.87.65-7.8V15.91c0-5.12-.49-8.28-1.46-9.47-1.35-1.59-3.6-2.38-6.75-2.38h-2.7V1.85h58.82l.84,17.69h-2.2c-.79-4.25-1.66-7.17-2.62-8.76-.96-1.59-2.37-2.8-4.25-3.63-1.5-.6-4.15-.89-7.94-.89h-20.94Z"/>
    <path class="st0" d="M205.21,82.63h-20.38l-25.83-37.77c-1.91.08-3.47.12-4.67.12-.49,0-1.01,0-1.58-.03-.56-.02-1.15-.05-1.74-.09v23.47c0,5.08.52,8.24,1.58,9.47,1.43,1.75,3.56,2.62,6.42,2.62h2.98v2.2h-32.7v-2.2h2.87c3.23,0,5.53-1.11,6.92-3.34.79-1.23,1.18-4.15,1.18-8.76V16.14c0-5.08-.53-8.24-1.58-9.47-1.46-1.75-3.64-2.62-6.53-2.62h-2.87V1.85h27.8c8.1,0,14.08.63,17.93,1.88,3.85,1.25,7.11,3.55,9.79,6.91,2.68,3.36,4.02,7.36,4.02,12,0,4.96-1.53,9.27-4.59,12.93-3.06,3.65-7.8,6.24-14.21,7.74l15.76,23.17c3.6,5.32,6.7,8.86,9.29,10.6,2.59,1.75,5.97,2.86,10.13,3.34v2.2ZM151.01,41.1c.71,0,1.33.01,1.86.03.52.02.96.03,1.29.03,7.28,0,12.77-1.67,16.46-5,3.7-3.34,5.54-7.58,5.54-12.75s-1.49-9.14-4.47-12.3c-2.98-3.16-6.93-4.74-11.85-4.74-2.18,0-5.12.38-8.84,1.13v33.6Z"/>
    <path class="st0" d="M228.29,6.25v31.93h16.77c4.35,0,7.26-.69,8.72-2.08,1.95-1.83,3.04-5.04,3.26-9.65h2.08v28.12h-2.08c-.53-3.93-1.05-6.45-1.58-7.57-.68-1.39-1.78-2.48-3.32-3.28-1.54-.79-3.9-1.19-7.09-1.19h-16.77v26.63c0,3.57.15,5.75.45,6.52.3.77.82,1.39,1.58,1.85.75.46,2.18.69,4.28.69h12.95c4.31,0,7.45-.32,9.4-.95,1.95-.63,3.83-1.89,5.63-3.75,2.33-2.46,4.71-6.18,7.15-11.14h2.25l-6.58,20.25h-58.82v-2.2h2.7c1.8,0,3.51-.46,5.12-1.37,1.2-.63,2.02-1.59,2.45-2.86.43-1.27.65-3.87.65-7.8V15.91c0-5.12-.49-8.28-1.46-9.47-1.35-1.59-3.6-2.38-6.75-2.38h-2.7V1.85h58.82l.84,17.69h-2.2c-.79-4.25-1.66-7.17-2.62-8.76-.96-1.59-2.37-2.8-4.25-3.63-1.5-.6-4.15-.89-7.94-.89h-20.94Z"/>
    <path class="st0" d="M273.09,1.85h20.71l46.66,60.58V15.85c0-4.96-.53-8.06-1.58-9.29-1.39-1.67-3.58-2.5-6.58-2.5h-2.65V1.85h26.57v2.2h-2.7c-3.23,0-5.52,1.03-6.87,3.1-.83,1.27-1.24,4.17-1.24,8.7v68.09h-2.03l-50.32-65.05v49.74c0,4.97.51,8.06,1.52,9.29,1.43,1.67,3.62,2.5,6.58,2.5h2.7v2.2h-26.57v-2.2h2.65c3.26,0,5.57-1.03,6.92-3.1.82-1.27,1.24-4.17,1.24-8.7V12.45c-2.21-2.74-3.89-4.55-5.04-5.42-1.15-.87-2.82-1.69-5.04-2.44-1.09-.36-2.74-.54-4.95-.54V1.85Z"/>
    <path class="st0" d="M393.43,80.42v2.2h-32.7v-2.2h2.7c3.15,0,5.44-.97,6.87-2.92.9-1.27,1.35-4.33,1.35-9.17V16.14c0-4.09-.24-6.79-.73-8.1-.38-.99-1.15-1.85-2.31-2.56-1.65-.95-3.38-1.43-5.18-1.43h-2.7V1.85h32.7v2.2h-2.76c-3.11,0-5.38.97-6.81,2.92-.94,1.27-1.41,4.33-1.41,9.17v52.18c0,4.09.24,6.79.73,8.1.37.99,1.16,1.85,2.36,2.56,1.61.95,3.32,1.43,5.12,1.43h2.76Z"/>
    <path class="st0" d="M462.94,1.85l.84,18.94h-2.14c-.41-3.34-.98-5.72-1.69-7.15-1.16-2.3-2.71-4-4.64-5.09-1.93-1.09-4.47-1.64-7.63-1.64h-10.75v61.72c0,4.97.51,8.06,1.52,9.29,1.43,1.67,3.62,2.5,6.58,2.5h2.65v2.2h-32.36v-2.2h2.7c3.23,0,5.52-1.03,6.87-3.1.83-1.27,1.24-4.17,1.24-8.7V6.91h-9.17c-3.56,0-6.1.28-7.6.83-1.95.75-3.62,2.2-5.01,4.35-1.39,2.15-2.21,5.04-2.48,8.7h-2.14l.9-18.94h62.31Z"/>
    <path class="st0" d="M521.59,1.85h26.62v2.2h-1.46c-.98,0-2.4.46-4.28,1.37-1.88.91-3.58,2.22-5.12,3.93-1.54,1.71-3.43,4.49-5.68,8.34l-18.4,30.68v20.25c0,4.97.52,8.06,1.58,9.29,1.43,1.67,3.68,2.5,6.75,2.5h2.48v2.2h-32.42v-2.2h2.7c3.23,0,5.52-1.03,6.87-3.1.82-1.27,1.24-4.17,1.24-8.7v-19.12l-20.94-33.84c-2.48-3.97-4.16-6.45-5.04-7.45-.88-.99-2.71-2.18-5.49-3.57-.75-.4-1.84-.6-3.26-.6V1.85h32.65v2.2h-1.69c-1.76,0-3.39.44-4.87,1.31-1.48.87-2.22,2.18-2.22,3.93,0,1.43,1.14,4.01,3.43,7.74l15.93,26.03,14.97-24.9c2.25-3.73,3.38-6.51,3.38-8.34,0-1.11-.27-2.1-.82-2.98-.54-.87-1.32-1.56-2.34-2.06-1.01-.5-2.53-.74-4.56-.74V1.85Z"/>
  </g>
  <g>
    <polygon class="st0" points="622.51 47.87 584.96 47.87 584.96 59.71 618.21 59.71 622.51 47.87"/>
    <polygon class="st0" points="614.09 71.04 584.96 71.04 584.96 82.63 609.88 82.63 614.09 71.04"/>
    <polygon class="st0" points="639.25 1.82 584.96 1.82 584.96 13.45 635.02 13.45 639.25 1.82"/>
    <polygon class="st0" points="630.84 24.95 584.96 24.95 584.96 36.62 626.6 36.62 630.84 24.95"/>
    <polygon class="st0" points="644.01 1.82 641.17 13.45 666.14 13.45 666.14 1.82 644.01 1.82"/>
    <polygon class="st0" points="635.52 36.62 666.14 36.62 666.14 24.95 638.37 24.95 635.52 36.62"/>
    <polygon class="st0" points="624.31 82.63 666.14 82.63 666.14 71.04 627.13 71.04 624.31 82.63"/>
    <polygon class="st0" points="629.9 59.71 666.14 59.71 666.14 47.87 632.78 47.87 629.9 59.71"/>
  </g>
</svg>